<svg xmlns="http://www.w3.org/2000/svg" xmlns:xlink="http://www.w3.org/1999/xlink" width="734" height="298" viewBox="0 0 734 298" font-family="-apple-system,Segoe UI,Helvetica,Arial,sans-serif">
<rect width="734" height="298" fill="#ffffff"/>
<line x1="58" y1="224.7" x2="718" y2="224.7" stroke="#eee" stroke-width="1"/>
<text x="50" y="228.7" font-size="11" text-anchor="end" fill="#9a8a62">10</text>
<line x1="58" y1="191.3" x2="718" y2="191.3" stroke="#eee" stroke-width="1"/>
<text x="50" y="195.3" font-size="11" text-anchor="end" fill="#9a8a62">100</text>
<line x1="58" y1="158.0" x2="718" y2="158.0" stroke="#eee" stroke-width="1"/>
<text x="50" y="162.0" font-size="11" text-anchor="end" fill="#9a8a62">1K</text>
<line x1="58" y1="124.7" x2="718" y2="124.7" stroke="#eee" stroke-width="1"/>
<text x="50" y="128.7" font-size="11" text-anchor="end" fill="#9a8a62">10K</text>
<line x1="58" y1="91.3" x2="718" y2="91.3" stroke="#eee" stroke-width="1"/>
<text x="50" y="95.3" font-size="11" text-anchor="end" fill="#9a8a62">100K</text>
<line x1="58" y1="58.0" x2="718" y2="58.0" stroke="#eee" stroke-width="1"/>
<text x="50" y="62.0" font-size="11" text-anchor="end" fill="#9a8a62">1M</text>
<line x1="58" y1="24.7" x2="718" y2="24.7" stroke="#eee" stroke-width="1"/>
<text x="50" y="28.7" font-size="11" text-anchor="end" fill="#9a8a62">10M</text>
<rect x="55.0" y="20.8" width="6.0" height="237.2" fill="#2b8a8a"/>
<rect x="62.8" y="26.7" width="6.0" height="231.3" fill="#2b8a8a"/>
<rect x="70.5" y="30.4" width="6.0" height="227.6" fill="#2b8a8a"/>
<rect x="78.3" y="34.2" width="6.0" height="223.8" fill="#2b8a8a"/>
<rect x="86.1" y="37.7" width="6.0" height="220.3" fill="#2b8a8a"/>
<rect x="93.8" y="41.4" width="6.0" height="216.6" fill="#2b8a8a"/>
<rect x="101.6" y="44.7" width="6.0" height="213.3" fill="#2b8a8a"/>
<rect x="109.4" y="48.0" width="6.0" height="210.0" fill="#2b8a8a"/>
<rect x="117.1" y="51.1" width="6.0" height="206.9" fill="#2b8a8a"/>
<rect x="124.9" y="54.0" width="6.0" height="204.0" fill="#2b8a8a"/>
<rect x="132.6" y="56.6" width="6.0" height="201.4" fill="#2b8a8a"/>
<rect x="140.4" y="59.1" width="6.0" height="198.9" fill="#2b8a8a"/>
<rect x="148.2" y="61.5" width="6.0" height="196.5" fill="#2b8a8a"/>
<rect x="155.9" y="63.7" width="6.0" height="194.3" fill="#2b8a8a"/>
<rect x="163.7" y="66.3" width="6.0" height="191.7" fill="#2b8a8a"/>
<rect x="171.5" y="69.0" width="6.0" height="189.0" fill="#2b8a8a"/>
<rect x="179.2" y="71.7" width="6.0" height="186.3" fill="#2b8a8a"/>
<rect x="187.0" y="74.6" width="6.0" height="183.4" fill="#2b8a8a"/>
<rect x="194.8" y="77.0" width="6.0" height="181.0" fill="#2b8a8a"/>
<rect x="202.5" y="79.2" width="6.0" height="178.8" fill="#2b8a8a"/>
<rect x="210.3" y="81.7" width="6.0" height="176.3" fill="#2b8a8a"/>
<rect x="218.1" y="84.3" width="6.0" height="173.7" fill="#2b8a8a"/>
<rect x="225.8" y="87.0" width="6.0" height="171.0" fill="#2b8a8a"/>
<rect x="233.6" y="89.0" width="6.0" height="169.0" fill="#2b8a8a"/>
<rect x="241.4" y="91.5" width="6.0" height="166.5" fill="#2b8a8a"/>
<rect x="249.1" y="93.9" width="6.0" height="164.1" fill="#2b8a8a"/>
<rect x="256.9" y="96.7" width="6.0" height="161.3" fill="#2b8a8a"/>
<rect x="264.6" y="99.7" width="6.0" height="158.3" fill="#2b8a8a"/>
<rect x="272.4" y="100.9" width="6.0" height="157.1" fill="#2b8a8a"/>
<rect x="280.2" y="102.5" width="6.0" height="155.5" fill="#2b8a8a"/>
<rect x="287.9" y="104.3" width="6.0" height="153.7" fill="#2b8a8a"/>
<rect x="295.7" y="106.8" width="6.0" height="151.2" fill="#2b8a8a"/>
<rect x="303.5" y="108.7" width="6.0" height="149.3" fill="#2b8a8a"/>
<rect x="311.2" y="109.8" width="6.0" height="148.2" fill="#2b8a8a"/>
<rect x="319.0" y="111.2" width="6.0" height="146.8" fill="#2b8a8a"/>
<rect x="326.8" y="111.1" width="6.0" height="146.9" fill="#2b8a8a"/>
<rect x="334.5" y="109.9" width="6.0" height="148.1" fill="#2b8a8a"/>
<rect x="342.3" y="111.1" width="6.0" height="146.9" fill="#2b8a8a"/>
<rect x="350.1" y="112.3" width="6.0" height="145.7" fill="#2b8a8a"/>
<rect x="357.8" y="114.1" width="6.0" height="143.9" fill="#2b8a8a"/>
<rect x="365.6" y="115.3" width="6.0" height="142.7" fill="#2b8a8a"/>
<rect x="373.4" y="116.4" width="6.0" height="141.6" fill="#2b8a8a"/>
<rect x="381.1" y="115.7" width="6.0" height="142.3" fill="#2b8a8a"/>
<rect x="388.9" y="115.5" width="6.0" height="142.5" fill="#2b8a8a"/>
<rect x="396.6" y="116.1" width="6.0" height="141.9" fill="#2b8a8a"/>
<rect x="404.4" y="116.6" width="6.0" height="141.4" fill="#2b8a8a"/>
<rect x="412.2" y="118.4" width="6.0" height="139.6" fill="#2b8a8a"/>
<rect x="419.9" y="119.6" width="6.0" height="138.4" fill="#2b8a8a"/>
<rect x="427.7" y="119.4" width="6.0" height="138.6" fill="#2b8a8a"/>
<rect x="435.5" y="120.0" width="6.0" height="138.0" fill="#2b8a8a"/>
<rect x="443.2" y="121.0" width="6.0" height="137.0" fill="#2b8a8a"/>
<rect x="451.0" y="121.2" width="6.0" height="136.8" fill="#2b8a8a"/>
<rect x="458.8" y="120.6" width="6.0" height="137.4" fill="#2b8a8a"/>
<rect x="466.5" y="121.8" width="6.0" height="136.2" fill="#2b8a8a"/>
<rect x="474.3" y="123.5" width="6.0" height="134.5" fill="#2b8a8a"/>
<rect x="482.1" y="124.4" width="6.0" height="133.6" fill="#2b8a8a"/>
<rect x="489.8" y="126.9" width="6.0" height="131.1" fill="#2b8a8a"/>
<rect x="497.6" y="128.9" width="6.0" height="129.1" fill="#2b8a8a"/>
<rect x="505.4" y="129.7" width="6.0" height="128.3" fill="#2b8a8a"/>
<rect x="513.1" y="127.7" width="6.0" height="130.3" fill="#2b8a8a"/>
<rect x="520.9" y="127.5" width="6.0" height="130.5" fill="#2b8a8a"/>
<rect x="528.6" y="130.6" width="6.0" height="127.4" fill="#2b8a8a"/>
<rect x="536.4" y="134.7" width="6.0" height="123.3" fill="#2b8a8a"/>
<rect x="544.2" y="137.6" width="6.0" height="120.4" fill="#2b8a8a"/>
<rect x="551.9" y="140.9" width="6.0" height="117.1" fill="#2b8a8a"/>
<rect x="559.7" y="144.2" width="6.0" height="113.8" fill="#2b8a8a"/>
<rect x="567.5" y="147.4" width="6.0" height="110.6" fill="#2b8a8a"/>
<rect x="575.2" y="147.0" width="6.0" height="111.0" fill="#2b8a8a"/>
<rect x="583.0" y="142.4" width="6.0" height="115.6" fill="#2b8a8a"/>
<rect x="590.8" y="145.2" width="6.0" height="112.8" fill="#2b8a8a"/>
<rect x="598.5" y="152.4" width="6.0" height="105.6" fill="#2b8a8a"/>
<rect x="606.3" y="153.7" width="6.0" height="104.3" fill="#2b8a8a"/>
<rect x="614.1" y="163.6" width="6.0" height="94.4" fill="#2b8a8a"/>
<rect x="621.8" y="172.6" width="6.0" height="85.4" fill="#2b8a8a"/>
<rect x="629.6" y="171.1" width="6.0" height="86.9" fill="#2b8a8a"/>
<rect x="637.4" y="168.7" width="6.0" height="89.3" fill="#2b8a8a"/>
<rect x="645.1" y="170.1" width="6.0" height="87.9" fill="#2b8a8a"/>
<rect x="652.9" y="176.4" width="6.0" height="81.6" fill="#2b8a8a"/>
<rect x="660.6" y="186.7" width="6.0" height="71.3" fill="#2b8a8a"/>
<rect x="668.4" y="194.7" width="6.0" height="63.3" fill="#2b8a8a"/>
<rect x="676.2" y="213.9" width="6.0" height="44.1" fill="#2b8a8a"/>
<rect x="683.9" y="203.9" width="6.0" height="54.1" fill="#2b8a8a"/>
<rect x="691.7" y="210.8" width="6.0" height="47.2" fill="#2b8a8a"/>
<rect x="699.5" y="213.3" width="6.0" height="44.7" fill="#2b8a8a"/>
<rect x="707.2" y="224.7" width="6.0" height="33.3" fill="#2b8a8a"/>
<rect x="715.0" y="219.8" width="6.0" height="38.2" fill="#2b8a8a"/>
<line x1="58" y1="258" x2="718" y2="258" stroke="#999" stroke-width="1"/>
<line x1="58.0" y1="258" x2="58.0" y2="262" stroke="#999" stroke-width="1"/>
<text x="58.0" y="276" font-size="11" text-anchor="middle" fill="#9a8a62">3</text>
<line x1="143.4" y1="258" x2="143.4" y2="262" stroke="#999" stroke-width="1"/>
<text x="143.4" y="276" font-size="11" text-anchor="middle" fill="#9a8a62">25</text>
<line x1="240.5" y1="258" x2="240.5" y2="262" stroke="#999" stroke-width="1"/>
<text x="240.5" y="276" font-size="11" text-anchor="middle" fill="#9a8a62">50</text>
<line x1="337.5" y1="258" x2="337.5" y2="262" stroke="#999" stroke-width="1"/>
<text x="337.5" y="276" font-size="11" text-anchor="middle" fill="#9a8a62">75</text>
<line x1="434.6" y1="258" x2="434.6" y2="262" stroke="#999" stroke-width="1"/>
<text x="434.6" y="276" font-size="11" text-anchor="middle" fill="#9a8a62">100</text>
<line x1="531.6" y1="258" x2="531.6" y2="262" stroke="#999" stroke-width="1"/>
<text x="531.6" y="276" font-size="11" text-anchor="middle" fill="#9a8a62">125</text>
<line x1="628.7" y1="258" x2="628.7" y2="262" stroke="#999" stroke-width="1"/>
<text x="628.7" y="276" font-size="11" text-anchor="middle" fill="#9a8a62">150</text>
<line x1="718.0" y1="258" x2="718.0" y2="262" stroke="#999" stroke-width="1"/>
<text x="718.0" y="276" font-size="11" text-anchor="middle" fill="#9a8a62">173</text>
<text x="388.0" y="295" font-size="12" text-anchor="middle" fill="#555">distance to win (plies)</text>
</svg>
