<svg xmlns="http://www.w3.org/2000/svg" xmlns:xlink="http://www.w3.org/1999/xlink" width="756" height="200" viewBox="0 0 756 200" font-family="-apple-system,Segoe UI,Helvetica,Arial,sans-serif">
<rect width="756" height="200" fill="#ffffff"/>
<defs><symbol id="e_chick" viewBox="0 0 36 36"><path fill="#FFAC33" d="M17.38 33.098c-.097-.18-.25-.302-.417-.391C15.366 31.001 16.5 29 16.5 29c0-.553 1-2 0-2l-1 1c-1 1-1 4-1 4h-2c-.553 0-1 .447-1 1s.447 1 1 1h1.108l-.222.12c-.486.263-.667.869-.404 1.355s.869.667 1.356.404l2.639-1.427c.485-.262.666-.868.403-1.354zM23.5 32h-2s0-3-1-4l-1-1c-1 0 0 1.447 0 2 0 0 1.135 2.001-.462 3.707-.168.089-.32.211-.418.391-.263.486-.082 1.093.404 1.355l2.639 1.427c.486.263 1.093.082 1.356-.404.263-.486.082-1.093-.404-1.355L22.393 34H23.5c.553 0 1-.447 1-1s-.447-1-1-1z"/><path fill="#FFCC4D" d="M34 24c-1-2-3-5-4-10h-.008c.001-.052.008-.102.008-.154 0-5.943-4.324-10.864-9.996-11.819 1.189-.26 2.031-.509.996-1.027-1.115-.558-2.23.129-2.999.846h-.002C17.23 1.129 16.116.442 15 1c-1.035.518-.193.767.996 1.026C10.325 2.981 6 7.902 6 13.846c0 .052.007.102.008.154H6c-1 5-3 8-4 10-.447.895 0 3 2 2 1.191-.596 2.377-1.912 3.357-3.715C8.902 26.94 12.066 31 18 31c5.934 0 9.098-4.06 10.643-8.715.98 1.803 2.166 3.119 3.357 3.715 2 1 2.447-1.105 2-2z"/><path fill="#F4900C" d="M21 14c0 1.657-1.343 2-3 2s-3-.343-3-2 1.343-3 3-3 3 1.343 3 3z"/><circle fill="#662113" cx="11.5" cy="11.5" r="1.5"/><circle fill="#662113" cx="24.5" cy="11.5" r="1.5"/></symbol><symbol id="e_elephant" viewBox="0 0 36 36"><path fill="#99AAB5" d="M34.453 15.573c-.864-7.3-5.729-10.447-13.93-10.447-.391 0-.763.017-1.139.031-.013-.01-.022-.021-.035-.031C14.655 1.605 4.091 2.779 1.745 6.3c-3.255 4.883-1.174 22.3 0 24.646 1.173 2.35 4.694 3.521 5.868 2.35 1.174-1.176 0-1.176-1.173-3.521-.85-1.701-.466-5.859.255-8.471.028.168.068.322.1.486.39 2.871 1.993 7.412 1.993 9.744 0 3.564 2.102 4.107 4.694 4.107 2.593 0 4.695-.543 4.695-4.107 0-.24-.008-.463-.012-.695.757.064 1.535.107 2.359.107.497 0 .977-.016 1.448-.039-.004.209-.013.41-.013.627 0 3.564 2.103 4.107 4.694 4.107 2.593 0 4.695-.543 4.695-4.107 0-1.801 1.192-4.625 2.039-6.982.159-.354.291-.732.42-1.117.118 1.307.193 2.706.193 4.206 0 .553.447 1 1 1s1-.447 1-1c0-5.153-.771-9.248-1.547-12.068z"/><path fill="#66757F" d="M19.35 5.126S23 10.641 20 15.641c-3 5-7.838 5-11 5-2 0-1 2 0 2 1.414 0 8.395 1.211 12-6 3-6-1.65-11.515-1.65-11.515z"/><circle fill="#292F33" cx="6.5" cy="14.141" r="1.5"/></symbol><symbol id="e_giraffe" viewBox="0 0 36 36"><path d="M22.217 35.615h-.002c-.804-.142-1.34-.908-1.198-1.712l.59-3.344s.68-3.165-1.076-5.449c1.259-1.171 5.024.085 5.024.085l-1.626 9.221c-.142.804-.908 1.34-1.712 1.199zm-12.692-.021h-.002c-.804-.142-1.34-.908-1.198-1.712l1.312-7.025s.503-2.419.503-4.439c1.142-.439 2.723 2.757 2.723 2.757l-1.626 9.221c-.143.803-.909 1.339-1.712 1.198zm21.277-9.823c-.537 0-.977-.431-.985-.969-.012-.723-.304-4.326-4.925-4.326-.545 0-.985-.441-.985-.985s.441-.985.985-.985c5.363 0 6.858 3.938 6.896 6.264.009.545-.425.993-.969 1.002l-.017-.001z" fill="#F4900C"/><g fill="#754C29"><path d="M15.226 17.252l-3.46-11.98 1.687-1.02c.369.61.628 1.722 1.054 3.633.569 2.558 1.349 6.06 2.657 7.876.318.442.218 1.058-.224 1.376-.175.126-1.714.115-1.714.115zM7.615 2.71V.739c0-.408.331-.739.739-.739s.739.331.739.739V2.71H7.615zm2.332 0V.739c0-.408.331-.739.739-.739s.739.331.739.739V2.71H9.947z"/><ellipse cx="30.802" cy="26.263" rx="1.971" ry="2.464"/></g><path fill="#FFCC4D" d="M28.935 34.094s-.647-2.515-.998-4.154c-.332-1.549-1.025-3.981-1.171-8.225-.01-.145-.039-.512-.138-.779-.122-.33-.567-.933-.766-1.203-.777-1.052-2.012-1.691-3.526-1.847-1.283-.132-2.573-.185-3.854-.339-.59-.071-1.1-.156-1.422-.272-1.636-.589-1.962-2.502-2.414-3.965-.8-2.59-1.508-5.225-1.961-7.9l-.036.009.036-.009-.027-.165V4.84c1.567-.714 2.79-2.888 1.971-3.706-1.416-.708-2.827.11-3.513.992-.02-.001-.039-.006-.059-.006H8.459c-.655 0-1.304.16-1.872.51-.584.359-.986.907-1.633 1.19-.786.344-1.721.093-2.417.64-1.189.933-.625 2.525.854 2.578.201.577.745.993 1.39.993h2.106c.055.011.108.021.173.029.604.071 1.088.525 1.477 1.215 1.047 1.856 1.244 4.244 1.415 6.324.119 1.448.177 2.906.158 4.36-.293 1.566-.12 3.377-.12 3.377.044.419.186.777.394 1.095l-.01.011c1.99 2.81 2.449 5.97 2.449 5.97l.784 4.193c.142.804.908 1.341 1.713 1.199.804-.142 1.341-.908 1.199-1.712l-1.262-7.159c1.977.534 4.609.932 6.449.852 0 .006-.003.014-.002.02 2.371-.146 3.26 1.73 3.454 2.576.194.846.868 4.228.868 4.228.142.804.909 1.341 1.712 1.199.802-.143 1.339-.91 1.197-1.714z"/><path fill="#F4900C" d="M11.975 22.1c-.985.985-1.16 2.408-.391 3.178.77.77 2.193.595 3.178-.391s1.16-2.408.391-3.178c-.77-.77-2.193-.595-3.178.391zm1.088-6.185c0 1.633 1.324 2.956 2.956 2.956 1.029 0 1.933-.526 2.462-1.323-.59-.071-1.1-.156-1.422-.272-1.564-.563-1.872-2.237-2.253-3.441-.057-.179-.108-.349-.162-.523-.935.496-1.581 1.469-1.581 2.603zm-.986-4.434c0-1.361-1.103-2.464-2.464-2.464-.388 0-.75.098-1.077.257.635 1.126 1.015 2.885 1.242 4.653 1.282-.086 2.299-1.142 2.299-2.446zm-1.093-4.079c0 1.118.906 2.023 2.023 2.023.182 0 .355-.032.523-.077-.449-1.787-.709-3.122-.847-3.937-.961.156-1.699.985-1.699 1.991zm8.977 12.456c0 1.633 1.324 2.956 2.956 2.956 1.633 0 2.956-1.324 2.956-2.956 0-.043-.011-.082-.013-.124-.777-1.052-2.012-1.691-3.526-1.847-.457-.047-.972-.088-1.499-.128-.538.536-.874 1.277-.874 2.099zM11.598 2.613c.505-.483 1.317-1.089 1.778-.856.461.233.258 1.273-1.166 2.151.113-.439.551-1.215-.612-1.295z"/><circle fill="#292F33" cx="8.772" cy="4.09" r=".985"/><path d="M21.047 33.545s-1.142 1.351-.985 1.781 2.741.491 3.249.022-1.951-1.842-2.264-1.803zm-12.623 0s-1.142 1.351-.985 1.781c.156.43 2.741.491 3.249.022s-1.951-1.842-2.264-1.803zm4.547 2.22c.136.391 2.766.329 3.205-.461.439-.79-2.678-1.317-2.678-1.317s-.703 1.273-.527 1.778zm12.404 0c.136.391 2.766.329 3.205-.461.439-.79-2.678-1.317-2.678-1.317s-.703 1.273-.527 1.778z" fill="#754C29"/></symbol><symbol id="e_hen" viewBox="0 0 36 36"><path fill="#E1E8ED" d="M20.143 32.215c0 1.183-.959 2.143-2.143 2.143s-2.143-.96-2.143-2.143c0-1.184.96-2.144 2.143-2.144s2.143.96 2.143 2.144z"/><path fill="#E1E8ED" d="M27.643 15.643C27.643 10.317 23.324 6 18 6c-5.326 0-9.643 4.317-9.643 9.643 0 5.357-1.071 16.572-1.071 16.572 0 1.183.959 2.143 2.143 2.143 1.183 0 2.143-.96 2.143-2.143 0 1.183.96 2.143 2.143 2.143 1.183 0 2.142-.96 2.142-2.143h4.286c0 1.183.96 2.143 2.144 2.143 1.183 0 2.143-.96 2.143-2.143 0 1.183.959 2.143 2.143 2.143 1.184 0 2.143-.96 2.143-2.143-.002 0-1.073-11.215-1.073-16.572z"/><path fill="#DD2E44" d="M20 3c0 2.209-1.447 6-2 6-.552 0-2-3.791-2-6s1.448-3 2-3c.553 0 2 .791 2 3zm-4.365 30c0-2.612 1.711-8 2.365-8 .653 0 2.365 5.388 2.365 8S18.652 36 18 36c-.654 0-2.365-.388-2.365-3z"/><ellipse fill="#F4900C" cx="18" cy="22.5" rx="7" ry="4.5"/><path fill="#FFAC33" d="M25 22.5c0 1.5-14 1.5-14 0s4.791-4.5 7-4.5 7 3 7 4.5z"/><circle fill="#292F33" cx="11.5" cy="18.5" r="1.5"/><circle fill="#292F33" cx="24.5" cy="18.5" r="1.5"/></symbol><symbol id="e_lion" viewBox="0 0 36 36"><path fill="#662113" d="M32.325 10.958s2.315.024 3.511 1.177c-.336-4.971-2.104-8.249-5.944-10.13-3.141-1.119-6.066 1.453-6.066 1.453s.862-1.99 2.19-2.746C23.789.236 21.146 0 18 0c-3.136 0-5.785.227-8.006.701 1.341.745 2.215 2.758 2.215 2.758S9.194.803 6 2.053C2.221 3.949.481 7.223.158 12.174c1.183-1.19 3.55-1.215 3.55-1.215S-.105 13.267.282 16.614c.387 2.947 1.394 5.967 2.879 8.722C3.039 22.15 5.917 20 5.917 20s-2.492 5.96-.581 8.738c1.935 2.542 4.313 4.641 6.976 5.916-.955-1.645-.136-3.044-.103-2.945.042.125.459 3.112 2.137 3.743 1.178.356 2.4.548 3.654.548 1.292 0 2.55-.207 3.761-.583 1.614-.691 2.024-3.585 2.064-3.708.032-.098.843 1.287-.09 2.921 2.706-1.309 5.118-3.463 7.064-6.073 1.699-2.846-.683-8.557-.683-8.557s2.85 2.13 2.757 5.288c1.556-2.906 2.585-6.104 2.911-9.2-.035-3.061-3.459-5.13-3.459-5.13z"/><path fill="#FFCC4D" d="M13.859 9.495c.596 2.392.16 4.422-2.231 5.017-2.392.596-6.363.087-6.958-2.304-.596-2.392.469-5.39 1.81-5.724 1.341-.334 6.784.62 7.379 3.011zm9.104 18.432c0 2.74-2.222 4.963-4.963 4.963s-4.963-2.223-4.963-4.963c0-2.741 2.223-4.964 4.963-4.964 2.741 0 4.963 2.222 4.963 4.964z"/><path fill="#DD2E44" d="M21.309 27.927c0 1.827-1.481 3.309-3.309 3.309s-3.309-1.481-3.309-3.309c0-1.827 1.481-3.31 3.309-3.31s3.309 1.483 3.309 3.31z"/><path fill="#E6AAAA" d="M11.052 8.997c.871 1.393.447 3.229-.946 4.1-1.394.871-2.608.797-3.479-.596-.871-1.394-.186-4.131.324-4.45.51-.319 3.23-.448 4.101.946z"/><path fill="#FFCC4D" d="M22.141 9.495c-.596 2.392-.159 4.422 2.232 5.017 2.392.596 6.363.087 6.959-2.304.596-2.392-.47-5.39-1.811-5.724-1.342-.334-6.786.62-7.38 3.011z"/><path fill="#E6AAAA" d="M24.948 8.997c-.871 1.393-.447 3.229.945 4.1 1.394.871 2.608.797 3.479-.596.871-1.394.185-4.131-.324-4.45-.51-.319-3.229-.448-4.1.946z"/><path fill="#FFCC4D" d="M18 7.125h-.002C5.167 7.126 7.125 12.083 8.5 18.667 9.875 25.25 10.384 27 10.384 27h15.228s.51-1.75 1.885-8.333C28.872 12.083 30.829 7.126 18 7.125z"/><path fill="#272B2B" d="M12 16s0-1.5 1.5-1.5S15 16 15 16v1.5s0 1.5-1.5 1.5-1.5-1.5-1.5-1.5V16zm9 0s0-1.5 1.5-1.5S24 16 24 16v1.5s0 1.5-1.5 1.5-1.5-1.5-1.5-1.5V16z"/><path fill="#FFE8B6" d="M20.168 21.521c-1.598 0-1.385.848-2.168 2.113-.783-1.266-.571-2.113-2.168-2.113-6.865 0-6.837.375-6.865 2.828-.058 4.986 2.802 6.132 5.257 6.06 1.597-.048 2.994-.88 3.777-2.131.783 1.251 2.179 2.083 3.776 2.131 2.455.072 5.315-1.073 5.257-6.06-.029-2.453-.001-2.828-6.866-2.828z"/><path fill="#272B2B" d="M14.582 21.411c-1.14.233 2.279 4.431 3.418 4.431s4.559-4.198 3.419-4.431c-1.14-.232-5.698-.232-6.837 0z"/><circle fill="#D99E82" cx="11.5" cy="24.5" r=".5"/><circle fill="#D99E82" cx="10.5" cy="26.5" r=".5"/><circle fill="#D99E82" cx="12.5" cy="27.5" r=".5"/><circle fill="#D99E82" cx="24.5" cy="24.5" r=".5"/><circle fill="#D99E82" cx="25.5" cy="26.5" r=".5"/><circle fill="#D99E82" cx="23.5" cy="27.5" r=".5"/></symbol></defs>
<text x="86.0" y="42" font-size="14" text-anchor="middle" fill="#333" font-weight="600">Lion</text>
<rect x="26" y="54" width="40" height="40" fill="#f3e7c6" stroke="#cbb98a" stroke-width="1"/>
<rect x="66" y="54" width="40" height="40" fill="#f3e7c6" stroke="#cbb98a" stroke-width="1"/>
<rect x="106" y="54" width="40" height="40" fill="#f3e7c6" stroke="#cbb98a" stroke-width="1"/>
<rect x="26" y="94" width="40" height="40" fill="#f3e7c6" stroke="#cbb98a" stroke-width="1"/>
<rect x="66" y="94" width="40" height="40" fill="#f3e7c6" stroke="#cbb98a" stroke-width="1"/>
<rect x="106" y="94" width="40" height="40" fill="#f3e7c6" stroke="#cbb98a" stroke-width="1"/>
<rect x="26" y="134" width="40" height="40" fill="#f3e7c6" stroke="#cbb98a" stroke-width="1"/>
<rect x="66" y="134" width="40" height="40" fill="#f3e7c6" stroke="#cbb98a" stroke-width="1"/>
<rect x="106" y="134" width="40" height="40" fill="#f3e7c6" stroke="#cbb98a" stroke-width="1"/>
<circle cx="86.0" cy="74.0" r="6.5" fill="#2b8a8a"/>
<circle cx="114.3" cy="85.7" r="6.5" fill="#2b8a8a"/>
<circle cx="126.0" cy="114.0" r="6.5" fill="#2b8a8a"/>
<circle cx="114.3" cy="142.3" r="6.5" fill="#2b8a8a"/>
<circle cx="86.0" cy="154.0" r="6.5" fill="#2b8a8a"/>
<circle cx="57.7" cy="142.3" r="6.5" fill="#2b8a8a"/>
<circle cx="46.0" cy="114.0" r="6.5" fill="#2b8a8a"/>
<circle cx="57.7" cy="85.7" r="6.5" fill="#2b8a8a"/>
<polygon points="86.0,97.2 102.8,104.3 102.8,130.8 69.2,130.8 69.2,104.3" fill="#fbf5e6" stroke="#6f5d33" stroke-width="2" stroke-linejoin="round"/><use href="#e_lion" x="74.0" y="103.7" width="24.0" height="24.0"/>
<text x="232.0" y="42" font-size="14" text-anchor="middle" fill="#333" font-weight="600">Giraffe</text>
<rect x="172" y="54" width="40" height="40" fill="#f3e7c6" stroke="#cbb98a" stroke-width="1"/>
<rect x="212" y="54" width="40" height="40" fill="#f3e7c6" stroke="#cbb98a" stroke-width="1"/>
<rect x="252" y="54" width="40" height="40" fill="#f3e7c6" stroke="#cbb98a" stroke-width="1"/>
<rect x="172" y="94" width="40" height="40" fill="#f3e7c6" stroke="#cbb98a" stroke-width="1"/>
<rect x="212" y="94" width="40" height="40" fill="#f3e7c6" stroke="#cbb98a" stroke-width="1"/>
<rect x="252" y="94" width="40" height="40" fill="#f3e7c6" stroke="#cbb98a" stroke-width="1"/>
<rect x="172" y="134" width="40" height="40" fill="#f3e7c6" stroke="#cbb98a" stroke-width="1"/>
<rect x="212" y="134" width="40" height="40" fill="#f3e7c6" stroke="#cbb98a" stroke-width="1"/>
<rect x="252" y="134" width="40" height="40" fill="#f3e7c6" stroke="#cbb98a" stroke-width="1"/>
<circle cx="232.0" cy="74.0" r="6.5" fill="#2b8a8a"/>
<circle cx="272.0" cy="114.0" r="6.5" fill="#2b8a8a"/>
<circle cx="232.0" cy="154.0" r="6.5" fill="#2b8a8a"/>
<circle cx="192.0" cy="114.0" r="6.5" fill="#2b8a8a"/>
<polygon points="232.0,97.2 248.8,104.3 248.8,130.8 215.2,130.8 215.2,104.3" fill="#fbf5e6" stroke="#6f5d33" stroke-width="2" stroke-linejoin="round"/><use href="#e_giraffe" x="220.0" y="103.7" width="24.0" height="24.0"/>
<text x="378.0" y="42" font-size="14" text-anchor="middle" fill="#333" font-weight="600">Elephant</text>
<rect x="318" y="54" width="40" height="40" fill="#f3e7c6" stroke="#cbb98a" stroke-width="1"/>
<rect x="358" y="54" width="40" height="40" fill="#f3e7c6" stroke="#cbb98a" stroke-width="1"/>
<rect x="398" y="54" width="40" height="40" fill="#f3e7c6" stroke="#cbb98a" stroke-width="1"/>
<rect x="318" y="94" width="40" height="40" fill="#f3e7c6" stroke="#cbb98a" stroke-width="1"/>
<rect x="358" y="94" width="40" height="40" fill="#f3e7c6" stroke="#cbb98a" stroke-width="1"/>
<rect x="398" y="94" width="40" height="40" fill="#f3e7c6" stroke="#cbb98a" stroke-width="1"/>
<rect x="318" y="134" width="40" height="40" fill="#f3e7c6" stroke="#cbb98a" stroke-width="1"/>
<rect x="358" y="134" width="40" height="40" fill="#f3e7c6" stroke="#cbb98a" stroke-width="1"/>
<rect x="398" y="134" width="40" height="40" fill="#f3e7c6" stroke="#cbb98a" stroke-width="1"/>
<circle cx="406.3" cy="85.7" r="6.5" fill="#2b8a8a"/>
<circle cx="406.3" cy="142.3" r="6.5" fill="#2b8a8a"/>
<circle cx="349.7" cy="142.3" r="6.5" fill="#2b8a8a"/>
<circle cx="349.7" cy="85.7" r="6.5" fill="#2b8a8a"/>
<polygon points="378.0,97.2 394.8,104.3 394.8,130.8 361.2,130.8 361.2,104.3" fill="#fbf5e6" stroke="#6f5d33" stroke-width="2" stroke-linejoin="round"/><use href="#e_elephant" x="366.0" y="103.7" width="24.0" height="24.0"/>
<text x="524.0" y="42" font-size="14" text-anchor="middle" fill="#333" font-weight="600">Chick</text>
<rect x="464" y="54" width="40" height="40" fill="#f3e7c6" stroke="#cbb98a" stroke-width="1"/>
<rect x="504" y="54" width="40" height="40" fill="#f3e7c6" stroke="#cbb98a" stroke-width="1"/>
<rect x="544" y="54" width="40" height="40" fill="#f3e7c6" stroke="#cbb98a" stroke-width="1"/>
<rect x="464" y="94" width="40" height="40" fill="#f3e7c6" stroke="#cbb98a" stroke-width="1"/>
<rect x="504" y="94" width="40" height="40" fill="#f3e7c6" stroke="#cbb98a" stroke-width="1"/>
<rect x="544" y="94" width="40" height="40" fill="#f3e7c6" stroke="#cbb98a" stroke-width="1"/>
<rect x="464" y="134" width="40" height="40" fill="#f3e7c6" stroke="#cbb98a" stroke-width="1"/>
<rect x="504" y="134" width="40" height="40" fill="#f3e7c6" stroke="#cbb98a" stroke-width="1"/>
<rect x="544" y="134" width="40" height="40" fill="#f3e7c6" stroke="#cbb98a" stroke-width="1"/>
<circle cx="524.0" cy="74.0" r="6.5" fill="#2b8a8a"/>
<polygon points="524.0,97.2 540.8,104.3 540.8,130.8 507.2,130.8 507.2,104.3" fill="#fbf5e6" stroke="#6f5d33" stroke-width="2" stroke-linejoin="round"/><use href="#e_chick" x="512.0" y="103.7" width="24.0" height="24.0"/>
<text x="670.0" y="42" font-size="14" text-anchor="middle" fill="#333" font-weight="600">Hen</text>
<rect x="610" y="54" width="40" height="40" fill="#f3e7c6" stroke="#cbb98a" stroke-width="1"/>
<rect x="650" y="54" width="40" height="40" fill="#f3e7c6" stroke="#cbb98a" stroke-width="1"/>
<rect x="690" y="54" width="40" height="40" fill="#f3e7c6" stroke="#cbb98a" stroke-width="1"/>
<rect x="610" y="94" width="40" height="40" fill="#f3e7c6" stroke="#cbb98a" stroke-width="1"/>
<rect x="650" y="94" width="40" height="40" fill="#f3e7c6" stroke="#cbb98a" stroke-width="1"/>
<rect x="690" y="94" width="40" height="40" fill="#f3e7c6" stroke="#cbb98a" stroke-width="1"/>
<rect x="610" y="134" width="40" height="40" fill="#f3e7c6" stroke="#cbb98a" stroke-width="1"/>
<rect x="650" y="134" width="40" height="40" fill="#f3e7c6" stroke="#cbb98a" stroke-width="1"/>
<rect x="690" y="134" width="40" height="40" fill="#f3e7c6" stroke="#cbb98a" stroke-width="1"/>
<circle cx="670.0" cy="74.0" r="6.5" fill="#2b8a8a"/>
<circle cx="698.3" cy="85.7" r="6.5" fill="#2b8a8a"/>
<circle cx="641.7" cy="85.7" r="6.5" fill="#2b8a8a"/>
<circle cx="710.0" cy="114.0" r="6.5" fill="#2b8a8a"/>
<circle cx="630.0" cy="114.0" r="6.5" fill="#2b8a8a"/>
<circle cx="670.0" cy="154.0" r="6.5" fill="#2b8a8a"/>
<polygon points="670.0,97.2 686.8,104.3 686.8,130.8 653.2,130.8 653.2,104.3" fill="#fbf5e6" stroke="#6f5d33" stroke-width="2" stroke-linejoin="round"/><use href="#e_hen" x="658.0" y="103.7" width="24.0" height="24.0"/>
</svg>
